<?xml version="1.0" encoding="utf-8"?>
<!-- Generator: Adobe Illustrator 23.0.3, SVG Export Plug-In . SVG Version: 6.00 Build 0)  -->
<svg version="1.1" id="Layer_1" xmlns="http://www.w3.org/2000/svg" xmlns:xlink="http://www.w3.org/1999/xlink" x="0px" y="0px"
	 viewBox="0 0 100 120" style="enable-background:new 0 0 100 120;" xml:space="preserve">
<style type="text/css">
	.st0{fill:#34C759;}
</style>
<g id="Regular-M" transform="matrix(1 0 0 1 1393.86 1126)">
	<path class="st0" d="M-1361.72-1035.25h35.35c1.66,0,2.73-1.03,2.73-2.69v-7.81c0-11.82,17.14-19.43,17.14-40.53
		c0-22.22-15.04-37.06-37.55-37.06s-37.5,14.84-37.5,37.06c0,21.09,17.14,28.71,17.14,40.53v7.81
		C-1364.4-1036.28-1363.33-1035.25-1361.72-1035.25z M-1357.13-1045.65c0-14.36-17.04-22.02-17.04-40.58
		c0-17.87,12.06-29.74,30.13-29.74c18.12,0,30.18,11.87,30.18,29.74c0,18.55-17.04,26.22-17.04,40.58v3.03h-26.22V-1045.65z
		 M-1359.86-1022.07h31.69c2.49,0,4.54-2.05,4.54-4.59s-2.05-4.59-4.54-4.59h-31.69c-2.49,0-4.54,2.05-4.54,4.59
		S-1362.35-1022.07-1359.86-1022.07z M-1344.04-1010.3c6.74,0,11.52-3.08,12.01-7.81h-23.97
		C-1355.57-1013.38-1350.78-1010.3-1344.04-1010.3z"/>
</g>
</svg>
