<?xml version="1.0" encoding="utf-8"?>
<!-- Generator: Adobe Illustrator 23.0.3, SVG Export Plug-In . SVG Version: 6.00 Build 0)  -->
<svg version="1.1" id="Layer_1" xmlns="http://www.w3.org/2000/svg" xmlns:xlink="http://www.w3.org/1999/xlink" x="0px" y="0px"
	 viewBox="0 0 100 120" style="enable-background:new 0 0 100 120;" xml:space="preserve">
<style type="text/css">
	.st0{fill:#FF3B30;}
</style>
<g id="Regular-M" transform="matrix(1 0 0 1 1393.84 1126)">
	<path class="st0" d="M-1339.06-1115.15c18.07,0,30.13,11.82,30.13,29.69c0,10.6-5.57,17.68-10.35,24.46l5.08,5.03
		c4.93-7.32,12.65-15.43,12.65-29.54c0-22.22-14.99-37.01-37.5-37.01c-12.55,0-22.71,4.59-29.3,12.45l5.37,5.37
		C-1357.71-1111.29-1349.36-1115.15-1339.06-1115.15z M-1306.54-1029.31c1.51,1.51,3.86,1.46,5.32,0s1.46-3.86,0-5.32l-79.93-80.03
		c-1.51-1.46-3.96-1.42-5.37,0c-1.42,1.46-1.37,3.96,0,5.32L-1306.54-1029.31z M-1356.73-1034.43h33.3l-7.42-7.37h-21.29v-3.08
		c0-12.74-16.06-23.97-16.06-34.52c0-1.07,0.2-2,0.44-2.93l-8.25-8.11c-0.39,1.51-0.59,3.17-0.59,4.93
		c0,21.09,17.19,28.71,17.19,40.53v7.86C-1359.42-1035.46-1358.39-1034.43-1356.73-1034.43z M-1354.93-1021.25h31.74
		c2.49,0,4.49-2.05,4.49-4.59c0-2.54-2-4.59-4.49-4.59h-31.74c-2.49,0-4.49,2.05-4.49,4.59
		C-1359.42-1023.3-1357.42-1021.25-1354.93-1021.25z M-1339.06-1009.48c6.74,0,11.47-3.08,11.96-7.81h-23.93
		C-1350.63-1012.56-1345.84-1009.48-1339.06-1009.48z"/>
</g>
</svg>
