<?xml version="1.0" encoding="utf-8"?>
<!-- Generator: Adobe Illustrator 23.0.3, SVG Export Plug-In . SVG Version: 6.00 Build 0)  -->
<svg version="1.1" id="Layer_1" xmlns="http://www.w3.org/2000/svg" xmlns:xlink="http://www.w3.org/1999/xlink" x="0px" y="0px"
	 viewBox="0 0 100 100" style="enable-background:new 0 0 100 100;" xml:space="preserve">
<style type="text/css">
	.st0{fill:#49599A;}
</style>
<g id="Light-M" transform="matrix(1 0 0 1 1095.42 1126)">
	<path class="st0" d="M-1045.42-1027.03c26.81,0,48.97-22.17,48.97-48.97s-22.17-48.97-49.02-48.97
		c-26.81,0-48.93,22.17-48.93,48.97S-1072.23-1027.03-1045.42-1027.03z M-1045.42-1033.32c-23.63,0-42.63-19.04-42.63-42.68
		s18.99-42.63,42.58-42.63c23.63,0,42.68,18.99,42.72,42.63C-1002.74-1052.37-1021.79-1033.32-1045.42-1033.32z M-1051.72-1051.63
		c1.27,0,2.29-0.59,3.08-1.76l25.34-39.6c0.49-0.73,0.88-1.56,0.88-2.39c0-1.76-1.56-2.88-3.12-2.88c-1.03,0-2,0.59-2.69,1.76
		l-23.63,37.3l-12.79-15.77c-0.83-1.07-1.71-1.51-2.78-1.51c-1.66,0-3.03,1.32-3.03,3.08c0,0.88,0.34,1.71,0.93,2.44l14.6,17.58
		C-1053.92-1052.12-1052.94-1051.63-1051.72-1051.63z"/>
</g>
</svg>
