<?xml version="1.0" encoding="utf-8"?>
<!-- Generator: Adobe Illustrator 23.0.3, SVG Export Plug-In . SVG Version: 6.00 Build 0)  -->
<svg version="1.1" id="Layer_1" xmlns="http://www.w3.org/2000/svg" xmlns:xlink="http://www.w3.org/1999/xlink" x="0px" y="0px"
	 viewBox="0 0 100 100" style="enable-background:new 0 0 100 100;" xml:space="preserve">
<style type="text/css">
	.st0{fill:#49599A;}
</style>
<g id="Light-M" transform="matrix(1 0 0 1 1095.42 1126)">
	<path class="st0" d="M-1045.42-1027.03c26.81,0,48.97-22.17,48.97-48.97s-22.17-48.97-49.02-48.97
		c-26.81,0-48.93,22.17-48.93,48.97S-1072.23-1027.03-1045.42-1027.03z M-1045.42-1033.32c-23.63,0-42.63-19.04-42.63-42.68
		s18.99-42.63,42.58-42.63c23.63,0,42.68,18.99,42.72,42.63C-1002.74-1052.37-1021.79-1033.32-1045.42-1033.32z M-1025.94-1090.89
		l2.93-2.98c1.42-1.46,1.46-2.93,0.2-4.2l-0.73-0.73c-1.27-1.27-2.78-1.12-4.15,0.24l-2.98,2.93L-1025.94-1090.89z
		 M-1061.48-1055.44l33.06-33.01l-4.74-4.69l-33.01,32.96l-2.83,6.01c-0.39,0.88,0.54,1.71,1.32,1.37L-1061.48-1055.44z"/>
</g>
</svg>
