<?xml version="1.0" encoding="utf-8"?>
<!-- Generator: Adobe Illustrator 23.0.3, SVG Export Plug-In . SVG Version: 6.00 Build 0)  -->
<svg version="1.1" id="Layer_1" xmlns="http://www.w3.org/2000/svg" xmlns:xlink="http://www.w3.org/1999/xlink" x="0px" y="0px"
	 viewBox="0 0 100 100" style="enable-background:new 0 0 100 100;" xml:space="preserve">
<g id="Thin-M" transform="matrix(1 0 0 1 800.953 1126)">
	<path d="M-750.53-1029.43c25.63,0,46.73-21.09,46.73-46.73s-21.09-46.73-46.73-46.73c-25.68,0-46.73,21.09-46.73,46.73
		S-776.17-1029.43-750.53-1029.43z M-766.5-1101.84c3.42-9.52,8.64-16.02,14.4-17.04v18.55
		C-757.42-1100.42-762.2-1100.96-766.5-1101.84z M-748.97-1118.88c5.71,1.03,10.94,7.52,14.4,17.04c-4.3,0.88-9.13,1.42-14.4,1.51
		V-1118.88z M-741.4-1118.1c7.91,1.71,15.04,5.66,20.65,11.08c-2.98,1.81-6.54,3.32-10.64,4.44
		C-733.93-1109.55-737.45-1114.83-741.4-1118.1z M-780.32-1107.02c5.62-5.42,12.74-9.38,20.65-11.08
		c-3.96,3.27-7.47,8.54-10.01,15.53C-773.82-1103.7-777.39-1105.21-780.32-1107.02z M-727.14-1077.82
		c-0.15-8.25-1.37-15.67-3.27-21.92c4.64-1.27,8.64-3.03,11.82-5.08c6.45,7.23,10.55,16.65,10.94,27H-727.14z M-793.4-1077.82
		c0.39-10.35,4.44-19.78,10.94-27c3.17,2.05,7.18,3.81,11.82,5.08c-1.95,6.25-3.12,13.67-3.27,21.92H-793.4z M-770.65-1077.82
		c0.15-7.71,1.32-14.94,3.17-21.14c4.69,1.07,9.86,1.66,15.38,1.76v19.38H-770.65z M-748.97-1077.82v-19.38
		c5.52-0.1,10.69-0.68,15.33-1.76c1.9,6.2,3.08,13.43,3.22,21.14H-748.97z M-793.4-1074.69h19.48c0.1,8.35,1.32,15.82,3.27,22.17
		c-4.64,1.27-8.64,2.98-11.82,5.03C-788.96-1054.77-793.06-1064.24-793.4-1074.69z M-770.65-1074.69h18.55v19.63
		c-5.52,0.1-10.69,0.68-15.38,1.71C-769.38-1059.55-770.55-1066.88-770.65-1074.69z M-748.97-1055.06v-19.63h18.55
		c-0.15,7.81-1.32,15.14-3.22,21.34C-738.28-1054.38-743.45-1054.96-748.97-1055.06z M-730.41-1052.52
		c1.95-6.35,3.12-13.82,3.27-22.17h19.48c-0.34,10.45-4.44,19.97-10.99,27.2C-721.77-1049.54-725.78-1051.25-730.41-1052.52z
		 M-766.5-1050.42c4.3-0.93,9.08-1.42,14.4-1.51v18.55C-757.86-1034.41-763.08-1040.9-766.5-1050.42z M-748.97-1051.94
		c5.27,0.1,10.11,0.59,14.4,1.51c-3.47,9.52-8.69,16.02-14.4,17.04V-1051.94z M-780.32-1045.25c2.98-1.86,6.49-3.32,10.64-4.44
		c2.49,6.93,6.01,12.21,9.91,15.43C-767.62-1035.97-774.7-1039.88-780.32-1045.25z M-731.39-1049.69c4.1,1.12,7.67,2.59,10.64,4.44
		c-5.62,5.42-12.7,9.28-20.61,11.04C-737.4-1037.48-733.93-1042.76-731.39-1049.69z"/>
</g>
</svg>
