<?xml version="1.0" encoding="utf-8"?>
<!-- Generator: Adobe Illustrator 23.0.3, SVG Export Plug-In . SVG Version: 6.00 Build 0)  -->
<svg version="1.1" id="Layer_1" xmlns="http://www.w3.org/2000/svg" xmlns:xlink="http://www.w3.org/1999/xlink" x="0px" y="0px"
	 viewBox="0 0 108 108" style="enable-background:new 0 0 108 108;" xml:space="preserve">
<g id="Light-M" transform="matrix(1 0 0 1 1091.93 1126)">
	<path d="M-1034.63-1121.27c0-1.76-1.51-3.32-3.27-3.32c-1.81,0-3.32,1.56-3.32,3.32v10.69c0,1.81,1.51,3.32,3.32,3.32
		c1.76,0,3.27-1.51,3.27-3.32V-1121.27z M-1013.05-1101.49c-1.27,1.27-1.27,3.32,0,4.59c1.27,1.27,3.37,1.32,4.69,0l7.57-7.57
		c1.27-1.27,1.27-3.37,0-4.64c-1.27-1.27-3.37-1.27-4.64,0L-1013.05-1101.49z M-1067.5-1096.9c1.22,1.27,3.37,1.27,4.64,0
		c1.27-1.17,1.27-3.37,0-4.59l-7.52-7.62c-1.22-1.27-3.37-1.27-4.64,0c-1.27,1.22-1.27,3.37-0.05,4.59L-1067.5-1096.9z
		 M-1038-1096.07c-13.13,0-24.02,10.89-24.02,24.07s10.89,24.07,24.02,24.07c13.18,0,24.07-10.89,24.07-24.07
		S-1024.82-1096.07-1038-1096.07z M-988.74-1068.68c1.76,0,3.27-1.56,3.27-3.32s-1.51-3.32-3.27-3.32h-10.69
		c-1.76,0-3.27,1.56-3.27,3.32s1.51,3.32,3.27,3.32H-988.74z M-1087.08-1075.32c-1.81,0-3.32,1.56-3.32,3.32s1.51,3.32,3.32,3.32
		h10.64c1.76,0,3.32-1.56,3.32-3.32s-1.56-3.32-3.32-3.32H-1087.08z M-1008.41-1047.1c-1.27-1.27-3.37-1.27-4.64,0
		c-1.27,1.27-1.27,3.37,0,4.64l7.62,7.62c1.27,1.27,3.37,1.27,4.64,0c1.27-1.27,1.27-3.37,0-4.64L-1008.41-1047.1z
		 M-1075.11-1039.53c-1.27,1.22-1.27,3.37,0,4.64c1.22,1.27,3.37,1.32,4.64,0.05l7.62-7.57c1.27-1.27,1.27-3.37,0-4.64
		c-1.22-1.27-3.37-1.27-4.64,0L-1075.11-1039.53z M-1034.63-1033.43c0-1.76-1.51-3.32-3.27-3.32c-1.81,0-3.32,1.56-3.32,3.32v10.69
		c0,1.76,1.51,3.32,3.32,3.32c1.76,0,3.27-1.56,3.27-3.32V-1033.43z"/>
</g>
</svg>
