<?xml version="1.0" encoding="utf-8"?>
<!-- Generator: Adobe Illustrator 23.0.3, SVG Export Plug-In . SVG Version: 6.00 Build 0)  -->
<svg version="1.1" id="Layer_1" xmlns="http://www.w3.org/2000/svg" xmlns:xlink="http://www.w3.org/1999/xlink" x="0px" y="0px"
	 viewBox="0 0 108 108" style="enable-background:new 0 0 108 108;" xml:space="preserve">
<g id="Thin-M" transform="matrix(1 0 0 1 800.856 1126)">
	<path d="M-746.86-1110.33c2.34,0,4.25-1.9,4.25-4.25s-1.9-4.25-4.25-4.25c-2.34,0-4.25,1.9-4.25,4.25
		S-749.2-1110.33-746.86-1110.33z M-719.76-1099.1c1.66,1.66,4.35,1.66,6.01,0c1.66-1.66,1.66-4.39,0-6.01
		c-1.66-1.66-4.35-1.66-6.01,0C-721.42-1103.49-721.42-1100.76-719.76-1099.1z M-780.01-1099.1c1.66,1.66,4.39,1.66,6.05,0
		c1.66-1.66,1.66-4.35,0-6.01c-1.66-1.66-4.39-1.66-6.05,0C-781.62-1103.45-781.62-1100.76-780.01-1099.1z M-746.86-1049.05
		c12.55,0,22.95-10.35,22.95-22.95c0-12.55-10.4-22.95-22.95-22.95c-12.55,0-22.95,10.4-22.95,22.95
		C-769.81-1059.4-759.41-1049.05-746.86-1049.05z M-746.86-1052.57c-10.64,0-19.43-8.79-19.43-19.43c0-10.6,8.79-19.38,19.43-19.38
		c10.6,0,19.43,8.79,19.43,19.38C-727.42-1061.36-736.26-1052.57-746.86-1052.57z M-789.43-1067.75c2.34,0,4.25-1.9,4.25-4.25
		s-1.9-4.25-4.25-4.25c-2.34,0-4.25,1.9-4.25,4.25S-791.78-1067.75-789.43-1067.75z M-704.28-1067.65c2.34,0,4.25-1.9,4.25-4.25
		s-1.9-4.25-4.25-4.25c-2.34,0-4.25,1.9-4.25,4.25S-706.62-1067.65-704.28-1067.65z M-779.96-1038.89c1.61,1.66,4.35,1.66,6.01,0
		c1.66-1.61,1.66-4.35,0-6.01c-1.66-1.66-4.39-1.66-6.01,0C-781.62-1043.24-781.62-1040.51-779.96-1038.89z M-719.85-1038.8
		c1.66,1.61,4.39,1.61,6.05,0c1.66-1.66,1.66-4.39,0-6.05c-1.66-1.66-4.39-1.66-6.05,0
		C-721.47-1043.19-721.47-1040.46-719.85-1038.8z M-746.86-1025.17c2.34,0,4.25-1.9,4.25-4.25s-1.9-4.25-4.25-4.25
		c-2.34,0-4.25,1.9-4.25,4.25S-749.2-1025.17-746.86-1025.17z"/>
</g>
</svg>
