<?xml version="1.0" encoding="utf-8"?>
<!-- Generator: Adobe Illustrator 23.0.3, SVG Export Plug-In . SVG Version: 6.00 Build 0)  -->
<svg version="1.1" id="Layer_1" xmlns="http://www.w3.org/2000/svg" xmlns:xlink="http://www.w3.org/1999/xlink" x="0px" y="0px"
	 viewBox="0 0 124 108" style="enable-background:new 0 0 124 108;" xml:space="preserve">
<style type="text/css">
	.st0{fill:#8E8E93;}
</style>
<g id="Regular-M" transform="matrix(1 0 0 1 1381.44 1126)">
	<path class="st0" d="M-1263.23-1077.18h-6.69c-2.64-24.85-24.07-44.63-49.51-44.63c-14.89,0-28.32,6.74-37.5,17.33
		c-1.86,2.1-1.61,4.69,0.34,6.05c1.9,1.37,4.2,0.93,5.81-0.88c7.62-8.69,18.85-14.21,31.35-14.21c21.24,0,38.57,15.77,41.11,36.33
		h-7.27c-3.47,0-4.35,2.34-2.49,5.03l10.94,15.58c1.56,2.25,3.91,2.29,5.52,0l10.89-15.53
		C-1258.78-1074.83-1259.71-1077.18-1263.23-1077.18z M-1375.68-1066.78h6.74c2.64,24.85,24.02,44.58,49.51,44.58
		c14.89,0,28.37-6.79,37.55-17.33c1.81-2.1,1.56-4.74-0.34-6.1c-1.9-1.37-4.25-0.88-5.81,0.93c-7.57,8.74-18.8,14.21-31.4,14.21
		c-21.29,0-38.62-15.72-41.16-36.28h7.32c3.47,0,4.35-2.39,2.49-5.03l-10.94-15.58c-1.56-2.25-3.91-2.29-5.52,0l-10.94,15.53
		C-1380.07-1069.17-1379.19-1066.78-1375.68-1066.78z"/>
</g>
</svg>
