<?xml version="1.0" encoding="utf-8"?>
<!-- Generator: Adobe Illustrator 23.0.3, SVG Export Plug-In . SVG Version: 6.00 Build 0)  -->
<svg version="1.1" id="Layer_1" xmlns="http://www.w3.org/2000/svg" xmlns:xlink="http://www.w3.org/1999/xlink" x="0px" y="0px"
	 viewBox="0 0 132 108" style="enable-background:new 0 0 132 108;" xml:space="preserve">
<style type="text/css">
	.st0{fill:#34C759;}
</style>
<path d="M78.3,100.8c26.17,0,47.7-21.63,47.7-47.75c0-26.12-21.58-47.71-47.7-47.71c-24.56,0-45.12,19.09-47.41,43.07
	C45.15,48.7,57.06,59.1,59.7,72.73c5.37-2.34,11.77-3.76,18.6-3.76c13.04,0,24.36,4.98,30.22,12.35
	c-7.57,8.06-18.31,13.09-30.22,13.09c-7.37,0-14.21-1.95-20.17-5.27c-0.73,2-1.66,3.86-2.88,5.62C62.14,98.56,70,100.8,78.3,100.8z
	 M78.3,61.01c-9.38,0-16.46-8.11-16.46-18.36c0-9.62,7.28-17.92,16.46-17.92c9.13,0,16.45,8.3,16.41,17.92
	C94.71,52.9,87.63,60.96,78.3,61.01z"/>
<path class="st0" d="M30.25,54.07c-13.28,0-24.27,10.99-24.27,24.32c0,13.33,10.99,24.27,24.27,24.27
	c13.33,0,24.32-10.94,24.32-24.27C54.56,65.06,43.58,54.07,30.25,54.07z"/>
</svg>
